<svg width="1440" height="1024" viewBox="0 0 1440 1024" fill="none" xmlns="http://www.w3.org/2000/svg">
<g clip-path="url(#clip0)">
<rect width="1440" height="1024" fill="white"/>
<circle cx="1432" cy="-1" r="291" fill="#1262FB"/>
<rect x="1300" y="675.63" width="383" height="23" transform="rotate(-50.2881 1300 675.63)" fill="#1262FB"/>
<rect x="1318" y="501.63" width="383" height="23" transform="rotate(-50.2881 1318 501.63)" fill="#1262FB"/>
<rect x="-144" y="360.63" width="383" height="23" transform="rotate(-50.2881 -144 360.63)" fill="#1262FB"/>
<rect x="-170" y="497.63" width="383" height="23" transform="rotate(-50.2881 -170 497.63)" fill="#1262FB"/>
<path d="M1242.32 123.28C1241.19 123.28 1240.09 123.14 1239.02 122.86C1237.95 122.58 1237.09 122.207 1236.42 121.74L1237.72 118.82C1238.35 119.233 1239.07 119.567 1239.9 119.82C1240.73 120.073 1241.54 120.2 1242.34 120.2C1243.86 120.2 1244.62 119.82 1244.62 119.06C1244.62 118.66 1244.4 118.367 1243.96 118.18C1243.53 117.98 1242.84 117.773 1241.88 117.56C1240.83 117.333 1239.95 117.093 1239.24 116.84C1238.53 116.573 1237.93 116.153 1237.42 115.58C1236.91 115.007 1236.66 114.233 1236.66 113.26C1236.66 112.407 1236.89 111.64 1237.36 110.96C1237.83 110.267 1238.52 109.72 1239.44 109.32C1240.37 108.92 1241.51 108.72 1242.86 108.72C1243.78 108.72 1244.69 108.827 1245.58 109.04C1246.47 109.24 1247.26 109.54 1247.94 109.94L1246.72 112.88C1245.39 112.16 1244.09 111.8 1242.84 111.8C1242.05 111.8 1241.48 111.92 1241.12 112.16C1240.76 112.387 1240.58 112.687 1240.58 113.06C1240.58 113.433 1240.79 113.713 1241.22 113.9C1241.65 114.087 1242.33 114.28 1243.28 114.48C1244.35 114.707 1245.23 114.953 1245.92 115.22C1246.63 115.473 1247.23 115.887 1247.74 116.46C1248.26 117.02 1248.52 117.787 1248.52 118.76C1248.52 119.6 1248.29 120.36 1247.82 121.04C1247.35 121.72 1246.65 122.267 1245.72 122.68C1244.79 123.08 1243.65 123.28 1242.32 123.28ZM1262.99 123L1262.95 115.58L1259.35 121.62H1257.59L1254.01 115.78V123H1250.35V109H1253.61L1258.53 117.08L1263.33 109H1266.59L1266.63 123H1262.99ZM1278.81 120.28H1272.89L1271.79 123H1267.75L1273.93 109H1277.83L1284.03 123H1279.91L1278.81 120.28ZM1277.65 117.36L1275.85 112.88L1274.05 117.36H1277.65ZM1291.27 119.28H1289.11V123H1285.15V109H1291.55C1292.82 109 1293.92 109.213 1294.85 109.64C1295.79 110.053 1296.51 110.653 1297.01 111.44C1297.52 112.213 1297.77 113.127 1297.77 114.18C1297.77 115.193 1297.53 116.08 1297.05 116.84C1296.59 117.587 1295.91 118.173 1295.03 118.6L1298.05 123H1293.81L1291.27 119.28ZM1293.77 114.18C1293.77 113.527 1293.57 113.02 1293.15 112.66C1292.74 112.3 1292.13 112.12 1291.31 112.12H1289.11V116.22H1291.31C1292.13 116.22 1292.74 116.047 1293.15 115.7C1293.57 115.34 1293.77 114.833 1293.77 114.18ZM1302.74 112.14H1298.44V109H1310.98V112.14H1306.7V123H1302.74V112.14Z" fill="white"/>
<path d="M1244.53 142.792H1241.5V148H1235.96V128.4H1244.92C1246.69 128.4 1248.23 128.699 1249.54 129.296C1250.85 129.875 1251.85 130.715 1252.56 131.816C1253.27 132.899 1253.63 134.177 1253.63 135.652C1253.63 137.071 1253.29 138.312 1252.62 139.376C1251.97 140.421 1251.02 141.243 1249.79 141.84L1254.02 148H1248.08L1244.53 142.792ZM1248.03 135.652C1248.03 134.737 1247.74 134.028 1247.16 133.524C1246.58 133.02 1245.72 132.768 1244.58 132.768H1241.5V138.508H1244.58C1245.72 138.508 1246.58 138.265 1247.16 137.78C1247.74 137.276 1248.03 136.567 1248.03 135.652ZM1272.42 143.716V148H1256.69V128.4H1272.06V132.684H1262.17V135.988H1270.88V140.132H1262.17V143.716H1272.42ZM1285.24 148.392C1283.19 148.392 1281.34 147.963 1279.7 147.104C1278.08 146.227 1276.8 145.013 1275.86 143.464C1274.93 141.915 1274.46 140.16 1274.46 138.2C1274.46 136.24 1274.93 134.485 1275.86 132.936C1276.8 131.387 1278.08 130.183 1279.7 129.324C1281.34 128.447 1283.19 128.008 1285.24 128.008C1287.04 128.008 1288.65 128.325 1290.09 128.96C1291.53 129.595 1292.72 130.509 1293.67 131.704L1290.14 134.896C1288.87 133.365 1287.33 132.6 1285.52 132.6C1284.46 132.6 1283.51 132.833 1282.67 133.3C1281.85 133.767 1281.2 134.429 1280.74 135.288C1280.29 136.128 1280.06 137.099 1280.06 138.2C1280.06 139.301 1280.29 140.281 1280.74 141.14C1281.2 141.98 1281.85 142.633 1282.67 143.1C1283.51 143.567 1284.46 143.8 1285.52 143.8C1287.33 143.8 1288.87 143.035 1290.14 141.504L1293.67 144.696C1292.72 145.891 1291.53 146.805 1290.09 147.44C1288.65 148.075 1287.04 148.392 1285.24 148.392ZM1304.71 142.792H1301.69V148H1296.14V128.4H1305.1C1306.88 128.4 1308.42 128.699 1309.72 129.296C1311.03 129.875 1312.04 130.715 1312.75 131.816C1313.46 132.899 1313.81 134.177 1313.81 135.652C1313.81 137.071 1313.48 138.312 1312.8 139.376C1312.15 140.421 1311.21 141.243 1309.98 141.84L1314.2 148H1308.27L1304.71 142.792ZM1308.21 135.652C1308.21 134.737 1307.92 134.028 1307.34 133.524C1306.76 133.02 1305.91 132.768 1304.77 132.768H1301.69V138.508H1304.77C1305.91 138.508 1306.76 138.265 1307.34 137.78C1307.92 137.276 1308.21 136.567 1308.21 135.652ZM1325.91 148.392C1323 148.392 1320.73 147.599 1319.11 146.012C1317.5 144.425 1316.7 142.176 1316.7 139.264V128.4H1322.25V139.096C1322.25 142.232 1323.49 143.8 1325.97 143.8C1328.43 143.8 1329.67 142.232 1329.67 139.096V128.4H1335.13V139.264C1335.13 142.176 1334.31 144.425 1332.69 146.012C1331.08 147.599 1328.83 148.392 1325.91 148.392ZM1338.88 128.4H1344.43V148H1338.88V128.4ZM1352.54 132.796H1346.52V128.4H1364.08V132.796H1358.09V148H1352.54V132.796ZM1381.88 143.716V148H1366.14V128.4H1381.52V132.684H1371.63V135.988H1380.34V140.132H1371.63V143.716H1381.88ZM1393.52 142.792H1390.5V148H1384.96V128.4H1393.92C1395.69 128.4 1397.23 128.699 1398.54 129.296C1399.84 129.875 1400.85 130.715 1401.56 131.816C1402.27 132.899 1402.62 134.177 1402.62 135.652C1402.62 137.071 1402.29 138.312 1401.62 139.376C1400.96 140.421 1400.02 141.243 1398.79 141.84L1403.02 148H1397.08L1393.52 142.792ZM1397.02 135.652C1397.02 134.737 1396.73 134.028 1396.16 133.524C1395.58 133.02 1394.72 132.768 1393.58 132.768H1390.5V138.508H1393.58C1394.72 138.508 1395.58 138.265 1396.16 137.78C1396.73 137.276 1397.02 136.567 1397.02 135.652Z" fill="white"/>
<path d="M1303 120H1404L1402.5 122.5L1303 123V120Z" fill="white"/>
<rect x="1388" y="120.595" width="15" height="3" transform="rotate(-57.106 1388 120.595)" fill="white"/>
<rect x="1394" y="120.595" width="15" height="3" transform="rotate(-57.106 1394 120.595)" fill="white"/>
<rect x="1400" y="120.595" width="15" height="3" transform="rotate(-57.106 1400 120.595)" fill="white"/>
<circle cx="123.5" cy="809.5" r="64.5" fill="#1262FB" fill-opacity="0.1"/>
<circle cx="20" cy="769" r="32" fill="#1262FB" fill-opacity="0.1"/>
<circle cx="199" cy="892" r="32" fill="#1262FB" fill-opacity="0.1"/>
<circle cx="243" cy="1048" r="32" fill="#1262FB" fill-opacity="0.1"/>
<circle cx="231" cy="970" r="32" fill="#1262FB" fill-opacity="0.1"/>
<circle cx="-5.5" cy="873.5" r="64.5" fill="#1262FB" fill-opacity="0.1"/>
<circle cx="-12.5" cy="1025.5" r="64.5" fill="#1262FB" fill-opacity="0.1"/>
<circle cx="116.5" cy="956.5" r="64.5" fill="#1262FB" fill-opacity="0.1"/>
</g>
<defs>
<clipPath id="clip0">
<rect width="1440" height="1024" fill="white"/>
</clipPath>
</defs>
</svg>
